<?xml version="1.0" encoding="UTF-8"?><svg id="Layer_1" xmlns="http://www.w3.org/2000/svg" xmlns:xlink="http://www.w3.org/1999/xlink" viewBox="0 0 1170 780"><defs><style>.cls-1{fill:url(#New_Gradient_Swatch_2);}.cls-1,.cls-2{stroke-width:0px;}.cls-2{fill:#1c1b1a;}</style><linearGradient id="New_Gradient_Swatch_2" x1="200.45" y1="336.93" x2="774.55" y2="336.93" gradientUnits="userSpaceOnUse"><stop offset="0" stop-color="#ef1746"/><stop offset=".5" stop-color="#7c2b8a"/><stop offset="1" stop-color="#3c1651"/></linearGradient></defs><path class="cls-1" d="M743.92,414.6c-10.91,10.91-25.41,16.92-40.83,16.92h0c-15.43,0-29.94-6.01-40.84-16.92l-138.89-138.9c-7.78-7.78-17.85-11.61-28.65-11.44l5.02-5.02c10.9-10.9,25.4-16.91,40.81-16.91s28.96,5.62,39.73,15.83h0s.02.02.02.02l126.32,126.26c11.43,11.43,24.24,15.48,35.19,15.48,5.19,0,9.95-.91,13.95-2.38-2.84,6.27-6.8,12.05-11.81,17.06h0ZM584.98,431.52c-15.43,0-29.93-6.01-40.84-16.92l-72.61-72.61c-15-14.99-30.42-15.72-41.14-13.43l43.8-43.8c14.66-9.31,29.73-9.08,39.45.64l119.79,119.78c-2.2,3.38-4.74,6.54-7.62,9.41-10.91,10.91-25.41,16.92-40.84,16.92h0ZM466.87,431.52c-15.43,0-29.93-6.01-40.84-16.92-15.82-15.82-20.51-38.61-14.1-58.58,1.26-2.72,8.9-11.02,20.4-13.84,10.66-2.61,20.58.59,29.5,9.51l54.39,54.39-8.51,8.52c-10.91,10.91-25.41,16.92-40.84,16.92h0ZM670.24,259.25l73.68,73.68c10.83,10.83,16.82,25.2,16.91,40.5h0c-.05,4.57-3.45,8.66-9.09,10.97-8.45,3.45-22.8,2.99-35.44-9.65l-121.13-121.13c9.88-7.3,21.81-11.27,34.27-11.27,15.42,0,29.91,6,40.81,16.91h0ZM753.62,323.23l-73.68-73.68c-13.49-13.49-31.43-20.92-50.51-20.92-16.28,0-31.84,5.46-44.45,15.49-12.6-10.03-28.17-15.49-44.45-15.49-19.08,0-37.02,7.43-50.51,20.92l-73.68,73.68c-8.13,8.13-13.87,17.76-17.26,28-.14.34-.27.69-.37,1.02h.04c-7.72,24.61-1.87,52.59,17.59,72.05,13.5,13.5,31.44,20.93,50.54,20.93s37.04-7.44,50.54-20.93l8.51-8.51,8.51,8.51c13.5,13.5,31.45,20.93,50.54,20.93s37.04-7.44,50.54-20.93c2.86-2.86,5.47-5.95,7.79-9.23l9.23,9.23c13.5,13.5,31.44,20.93,50.54,20.93h0c19.09,0,37.04-7.44,50.53-20.93,13.5-13.5,20.93-31.45,20.93-50.54s-7.44-37.04-20.93-50.54h0Z"/><path class="cls-2" d="M461.55,474.29v75.57h-14.79v-49.01l-21.31,35.06-1.74.06-21.21-34.93v48.83h-14.9v-75.57h15.33l21.67,35.68,21.56-35.68h15.39Z"/><path class="cls-2" d="M536.05,549.87l-4.8-13.6h-31.04l-4.53,13.6h-16.09l26.45-75.57h18.46l26.66,75.57h-15.1ZM505.06,522.34h21.27l-10.91-30.88-10.36,30.88Z"/><path class="cls-2" d="M613.02,474.29h14.9v75.57h-11.34l-32.39-46.21v46.21h-14.9v-75.57h11.32l32.4,46.04v-46.04Z"/><path class="cls-2" d="M677.36,551.38c-7.49,0-13.78-1.67-18.89-5.02-5.11-3.35-8.71-7.9-10.8-13.66l12.74-7.45c2.95,7.7,8.74,11.55,17.38,11.55,4.17,0,7.23-.76,9.18-2.27s2.92-3.42,2.92-5.72c0-2.66-1.19-4.73-3.56-6.21-2.38-1.47-6.62-3.08-12.74-4.8-3.38-1.01-6.25-2.01-8.58-3.02-2.34-1.01-4.68-2.36-7.02-4.05-2.34-1.69-4.12-3.83-5.34-6.42-1.22-2.59-1.83-5.61-1.83-9.07,0-6.84,2.43-12.29,7.29-16.36,4.86-4.07,10.71-6.1,17.54-6.1,6.12,0,11.5,1.49,16.14,4.48,4.64,2.99,8.26,7.14,10.85,12.47l-12.52,7.23c-3.02-6.48-7.85-9.72-14.47-9.72-3.1,0-5.52.7-7.29,2.1-1.76,1.4-2.64,3.22-2.64,5.45,0,2.38.99,4.3,2.97,5.78,1.98,1.48,5.78,3.08,11.39,4.8,2.3.72,4.05,1.28,5.24,1.67,1.19.4,2.81,1.01,4.86,1.84,2.05.83,3.63,1.6,4.75,2.32,1.12.72,2.39,1.69,3.83,2.92,1.44,1.22,2.54,2.48,3.29,3.78.76,1.3,1.4,2.86,1.94,4.7.54,1.84.81,3.83.81,5.99,0,6.98-2.54,12.52-7.61,16.62-5.07,4.1-11.68,6.15-19.81,6.15Z"/><path class="cls-2" d="M753.47,551.38c-8.42,0-15.33-2.38-20.73-7.13-5.4-4.75-8.1-11.12-8.1-19.11v-50.85h14.79v49.66c0,3.96,1.13,7.09,3.4,9.39,2.27,2.3,5.81,3.46,10.63,3.46s8.37-1.15,10.63-3.46c2.27-2.3,3.4-5.43,3.4-9.39v-49.66h14.9v50.85c0,7.99-2.7,14.36-8.1,19.11-5.4,4.75-12.34,7.13-20.84,7.13Z"/></svg>